<svg width="75" height="20" viewBox="0 0 75 20" fill="none" xmlns="http://www.w3.org/2000/svg">
<path d="M9.99997 0.000366211C4.47714 0.000366211 0 4.48686 0 10.0212C0 11.6266 0.37671 13.1438 1.04638 14.4889L3.59367 12.2954C3.99112 11.9532 4.13761 11.4111 4.06246 10.8921C4.0213 10.6077 3.99999 10.317 3.99999 10.0212C3.99999 6.7006 6.68627 4.00871 9.99997 4.00871C11.4299 4.00871 12.743 4.50995 13.7738 5.34666C14.1999 5.69254 14.7719 5.84212 15.2845 5.64606L18.3333 4.48003C16.5418 1.77992 13.4782 0.000366211 9.99997 0.000366211Z" fill="url(#paint0_linear_5_4888)"/>
<path d="M9.99997 0.000366211C4.47714 0.000366211 0 4.48686 0 10.0212C0 11.6266 0.37671 13.1438 1.04638 14.4889L3.59367 12.2954C3.99112 11.9532 4.13761 11.4111 4.06246 10.8921C4.0213 10.6077 3.99999 10.317 3.99999 10.0212C3.99999 6.7006 6.68627 4.00871 9.99997 4.00871C11.4299 4.00871 12.743 4.50995 13.7738 5.34666C14.1999 5.69254 14.7719 5.84212 15.2845 5.64606L18.3333 4.48003C16.5418 1.77992 13.4782 0.000366211 9.99997 0.000366211Z" fill="url(#paint1_linear_5_4888)"/>
<path d="M18.3327 4.47967C16.5412 1.77955 13.4777 0 9.99944 0C5.58335 0 1.83585 2.86852 0.51123 6.84759C3.16609 3.34029 7.68909 3.02938 11.7494 4.2681C12.4962 4.49593 13.1813 4.8658 13.7733 5.3463C14.1994 5.69219 14.7713 5.84175 15.2839 5.6457L18.3327 4.47967Z" fill="url(#paint2_linear_5_4888)"/>
<path d="M10 20C15.5229 20 20 15.5135 20 9.97914C20 8.37378 19.6233 6.8566 18.9536 5.51151L16.4063 7.70494C16.0089 8.04718 15.8624 8.58923 15.9375 9.10831C15.9787 9.39263 16 9.68339 16 9.97914C16 13.2998 13.3137 15.9917 10 15.9917C8.57012 15.9917 7.25704 15.4904 6.22622 14.6537C5.80009 14.3078 5.22814 14.1582 4.71552 14.3543L1.66672 15.5203C3.45825 18.2204 6.52175 20 10 20Z" fill="url(#paint3_linear_5_4888)"/>
<path d="M10 20C15.5229 20 20 15.5135 20 9.97914C20 8.37378 19.6233 6.8566 18.9536 5.51151L16.4063 7.70494C16.0089 8.04718 15.8624 8.58923 15.9375 9.10831C15.9787 9.39263 16 9.68339 16 9.97914C16 13.2998 13.3137 15.9917 10 15.9917C8.57012 15.9917 7.25704 15.4904 6.22622 14.6537C5.80009 14.3078 5.22814 14.1582 4.71552 14.3543L1.66672 15.5203C3.45825 18.2204 6.52175 20 10 20Z" fill="url(#paint4_linear_5_4888)"/>
<path d="M10 20C15.5229 20 20 15.5135 20 9.97914C20 8.37378 19.6233 6.8566 18.9536 5.51151L16.4063 7.70494C16.0089 8.04718 15.8624 8.58923 15.9375 9.10831C15.9787 9.39263 16 9.68339 16 9.97914C16 13.2998 13.3137 15.9917 10 15.9917C8.57012 15.9917 7.25704 15.4904 6.22622 14.6537C5.80009 14.3078 5.22814 14.1582 4.71552 14.3543L1.66672 15.5203C3.45825 18.2204 6.52175 20 10 20Z" fill="url(#paint5_linear_5_4888)"/>
<path d="M1.66725 15.5202C3.45878 18.2203 6.52229 19.9999 10.0006 19.9999C14.4166 19.9999 18.1641 17.1314 19.4888 13.1523C16.8339 16.6596 12.3109 16.9705 8.2506 15.7318C7.50378 15.5039 6.81872 15.1341 6.22675 14.6536C5.80062 14.3077 5.22868 14.1581 4.71605 14.3542L1.66725 15.5202Z" fill="url(#paint6_linear_5_4888)"/>
<path d="M30.804 15.247C29.892 15.247 29.094 15.043 28.41 14.635C27.726 14.227 27.192 13.651 26.808 12.907C26.436 12.151 26.25 11.269 26.25 10.261C26.25 9.25304 26.436 8.37704 26.808 7.63304C27.192 6.87704 27.726 6.29504 28.41 5.88704C29.094 5.47904 29.892 5.27504 30.804 5.27504C31.704 5.27504 32.496 5.47904 33.18 5.88704C33.864 6.29504 34.392 6.87704 34.764 7.63304C35.148 8.37704 35.34 9.25304 35.34 10.261C35.34 11.269 35.148 12.151 34.764 12.907C34.392 13.651 33.864 14.227 33.18 14.635C32.496 15.043 31.704 15.247 30.804 15.247ZM30.804 13.591C31.608 13.591 32.232 13.297 32.676 12.709C33.132 12.121 33.36 11.305 33.36 10.261C33.36 9.21704 33.132 8.40104 32.676 7.81304C32.232 7.22504 31.608 6.93104 30.804 6.93104C30 6.93104 29.37 7.22504 28.914 7.81304C28.458 8.38904 28.23 9.20504 28.23 10.261C28.23 11.317 28.458 12.139 28.914 12.727C29.37 13.303 30 13.591 30.804 13.591Z" fill="white" fill-opacity="0.92"/>
<path d="M37.7149 5.49104H39.4969L39.5689 7.52504L39.3889 7.27304C39.6289 6.62504 40.0069 6.13304 40.5229 5.79704C41.0509 5.44904 41.6929 5.27504 42.4489 5.27504C43.3489 5.27504 44.1049 5.49704 44.7169 5.94104C45.3409 6.38504 45.8029 6.98504 46.1029 7.74104C46.4029 8.49704 46.5529 9.33704 46.5529 10.261C46.5529 11.185 46.4029 12.025 46.1029 12.781C45.8029 13.537 45.3409 14.137 44.7169 14.581C44.1049 15.025 43.3489 15.247 42.4489 15.247C41.9569 15.247 41.5069 15.169 41.0989 15.013C40.7029 14.857 40.3609 14.629 40.0729 14.329C39.7849 14.017 39.5629 13.645 39.4069 13.213L39.6229 12.997V17.731H37.7149V5.49104ZM39.4609 10.261C39.4609 10.861 39.5509 11.413 39.7309 11.917C39.9229 12.421 40.2109 12.829 40.5949 13.141C40.9789 13.453 41.4469 13.609 41.9989 13.609C42.8509 13.609 43.4869 13.291 43.9069 12.655C44.3389 12.007 44.5549 11.209 44.5549 10.261C44.5549 9.32504 44.3389 8.53304 43.9069 7.88504C43.4869 7.23704 42.8509 6.91304 41.9989 6.91304C41.4469 6.91304 40.9789 7.06904 40.5949 7.38104C40.2109 7.69304 39.9229 8.10704 39.7309 8.62304C39.5509 9.12704 39.4609 9.67303 39.4609 10.261Z" fill="white" fill-opacity="0.92"/>
<path d="M51.4498 3.33104V12.295C51.4498 12.679 51.5458 12.973 51.7378 13.177C51.9298 13.369 52.2058 13.465 52.5658 13.465H53.9518V15.031H52.3678C51.4438 15.031 50.7418 14.797 50.2618 14.329C49.7818 13.861 49.5418 13.183 49.5418 12.295V3.33104H51.4498ZM53.9698 5.49104V7.03904H48.0838V5.49104H53.9698Z" fill="white" fill-opacity="0.92"/>
<path d="M58.2198 5.49104V15.031H56.3118V5.49104H58.2198ZM58.2738 2.26904V4.08704H56.2758V2.26904H58.2738Z" fill="white" fill-opacity="0.92"/>
<path d="M62.7772 5.49104L62.8132 7.05704C63.0412 6.49304 63.3892 6.05504 63.8572 5.74304C64.3372 5.43104 64.8952 5.27504 65.5312 5.27504C66.2152 5.27504 66.7972 5.44904 67.2772 5.79704C67.7572 6.14504 68.0992 6.63104 68.3032 7.25504C68.5192 6.60704 68.8672 6.11504 69.3472 5.77904C69.8392 5.44304 70.4452 5.27504 71.1652 5.27504C71.8012 5.27504 72.3472 5.41904 72.8032 5.70704C73.2712 5.98304 73.6252 6.39104 73.8652 6.93104C74.1172 7.47104 74.2432 8.12504 74.2432 8.89304V15.031H72.3352V9.48703C72.3352 8.64704 72.1912 8.00504 71.9032 7.56104C71.6152 7.10504 71.2012 6.87704 70.6612 6.87704C70.2172 6.87704 69.8332 6.97904 69.5092 7.18304C69.1972 7.38704 68.9572 7.68704 68.7892 8.08304C68.6212 8.46704 68.5372 8.93504 68.5372 9.48703V15.031H66.7372V9.48703C66.7372 8.64704 66.5872 8.00504 66.2872 7.56104C65.9992 7.10504 65.5912 6.87704 65.0632 6.87704C64.6192 6.87704 64.2352 6.97904 63.9112 7.18304C63.5992 7.38704 63.3592 7.68704 63.1912 8.08304C63.0232 8.46704 62.9392 8.93504 62.9392 9.48703V15.031H61.0312V5.49104H62.7772Z" fill="white" fill-opacity="0.92"/>
<defs>
<linearGradient id="paint0_linear_5_4888" x1="0.166014" y1="14.241" x2="5.67131" y2="2.85777" gradientUnits="userSpaceOnUse">
<stop stop-color="#8B72FF"/>
<stop offset="1" stop-color="#2D54E3"/>
</linearGradient>
<linearGradient id="paint1_linear_5_4888" x1="4.4" y1="9.00027" x2="6.33172" y2="3.27489" gradientUnits="userSpaceOnUse">
<stop stop-color="#8B72FF" stop-opacity="0"/>
<stop offset="1" stop-color="#15102E" stop-opacity="0.6"/>
</linearGradient>
<linearGradient id="paint2_linear_5_4888" x1="0.672611" y1="6.73047" x2="8.92384" y2="-7.28808" gradientUnits="userSpaceOnUse">
<stop stop-color="#8B72FF"/>
<stop offset="1" stop-color="#3C66FF"/>
</linearGradient>
<linearGradient id="paint3_linear_5_4888" x1="19.834" y1="5.75932" x2="14.3287" y2="17.1426" gradientUnits="userSpaceOnUse">
<stop stop-color="#8B72FF"/>
<stop offset="1" stop-color="#2D54E3"/>
</linearGradient>
<linearGradient id="paint4_linear_5_4888" x1="19.834" y1="5.75932" x2="14.3287" y2="17.1426" gradientUnits="userSpaceOnUse">
<stop stop-color="#8B72FF"/>
<stop offset="1" stop-color="#2D54E3"/>
</linearGradient>
<linearGradient id="paint5_linear_5_4888" x1="15.6" y1="11.0001" x2="13.6683" y2="16.7255" gradientUnits="userSpaceOnUse">
<stop stop-color="#8B72FF" stop-opacity="0"/>
<stop offset="1" stop-color="#15102E" stop-opacity="0.6"/>
</linearGradient>
<linearGradient id="paint6_linear_5_4888" x1="19.3274" y1="13.2694" x2="11.0762" y2="27.288" gradientUnits="userSpaceOnUse">
<stop stop-color="#8B72FF"/>
<stop offset="1" stop-color="#3C66FF"/>
</linearGradient>
</defs>
</svg>
